<svg id="Layer_1" data-name="Layer 1" xmlns="http://www.w3.org/2000/svg" viewBox="0 0 66 82.99"><defs><style>.cls-1{fill:#e83828;}</style></defs><polygon class="cls-1" points="17.75 25.86 17.75 9.42 23.42 4.85 19.07 1.06 14.18 1.06 18.47 4.85 14.01 8.76 14.01 26.41 15.99 28.06 5.82 34.61 5.82 47.97 0.1 58.53 8.4 58.53 11.1 50.66 11.1 34.39 20.5 27.79 17.75 25.86"/><polygon class="cls-1" points="60.18 47.97 60.18 34.61 50.01 28.06 51.98 26.41 51.98 8.76 47.53 4.85 51.82 1.06 46.92 1.06 42.58 4.85 48.24 9.42 48.24 25.86 45.49 27.79 54.9 34.39 54.9 50.66 57.59 58.53 65.9 58.53 60.18 47.97"/><path class="cls-1" d="M45.21,24V11L38.48,5.24,39.64,4,34.52,0V4l.87.62v.62H30.61V4.62L31.47,4V0L26.36,4l1.15,1.24L20.79,11V24l4.45,3.25L14,35.22V58.53l10.85,8.33h5.08l-12.17-9.2V35.84l5.15-3.38L24.75,34l-4,2.84V55.52l8.66,6.6h7.09l8.67-6.6V36.83l-4-2.84,1.85-1.53,5.16,3.38V57.66l-12.17,9.2h5.07L52,58.53V35.22l-11.26-8ZM22.32,11.84,29,6.39v5l-3,2.07ZM33,36.26l-5.9-4.09,2.72-2L33,32.5h0l3.17-2.35,2.73,2Zm4-24.88v-5l6.64,5.45L40,13.45Z"/><path class="cls-1" d="M55.65,69.59H46.76V80.24h2.93V72.52h4.55v7.72h2.93V71.12A1.53,1.53,0,0,0,55.65,69.59Z"/><path class="cls-1" d="M20.74,69.59a1.53,1.53,0,0,0-1.52,1.53V76a1.52,1.52,0,0,0,1.52,1.52h6.57v2.82h-7.9V83h9.3a1.52,1.52,0,0,0,1.52-1.52V69.59ZM22.23,74V73.1a1,1,0,0,1,1-1h4.06v3H23.25A1,1,0,0,1,22.23,74Z"/><path class="cls-1" d="M42.49,69.59H33.18v2.68h7.9v1.6H34.52A1.52,1.52,0,0,0,33,75.4v3.32a1.52,1.52,0,0,0,1.52,1.52H44V71.12A1.53,1.53,0,0,0,42.49,69.59Zm-1.41,8.55H37a1,1,0,0,1-1-1V76.8a1,1,0,0,1,1-1h4.06Z"/><path class="cls-1" d="M63.31,77.63V72.4H65.9V69.72H63.31V66.91H60.38V78.79a1.52,1.52,0,0,0,1.52,1.52H66V77.63Z"/><rect class="cls-1" x="13.82" y="72.34" width="2.93" height="7.9"/><rect class="cls-1" x="13.82" y="66.86" width="2.93" height="2.43"/><path class="cls-1" d="M11,72V68.38a1.52,1.52,0,0,0-1.52-1.52H0V80.23H9.49A1.53,1.53,0,0,0,11,78.7V75.07a1.52,1.52,0,0,0-1.52-1.53A1.52,1.52,0,0,0,11,72ZM8,76.76a1,1,0,0,1-1,1H2.93v-3H7a1,1,0,0,1,1,1ZM2.93,69.29H7a1,1,0,0,1,1,1v.94a1,1,0,0,1-1,1H2.93Z"/></svg>