<svg id="Layer_1" data-name="Layer 1" xmlns="http://www.w3.org/2000/svg" xmlns:xlink="http://www.w3.org/1999/xlink" viewBox="0 0 95.7 71.69"><defs><style>.cls-1{fill:url(#linear-gradient);}.cls-2{fill:url(#linear-gradient-2);}.cls-3{fill:url(#linear-gradient-3);}.cls-4{fill:url(#linear-gradient-4);}.cls-5{fill:url(#linear-gradient-5);}.cls-6{fill:url(#linear-gradient-6);}.cls-7{fill:url(#linear-gradient-7);}.cls-8{fill:url(#linear-gradient-8);}.cls-9{fill:url(#linear-gradient-10);}.cls-10{fill:url(#linear-gradient-11);}</style><linearGradient id="linear-gradient" x1="1.85" y1="35.84" x2="80.24" y2="35.84" gradientUnits="userSpaceOnUse"><stop offset="0" stop-color="#e83828"/><stop offset="0.12" stop-color="#a51c16"/><stop offset="0.26" stop-color="#ff7069"/><stop offset="0.36" stop-color="#f76161"/><stop offset="0.43" stop-color="#e75453"/><stop offset="0.57" stop-color="#cb3c38"/><stop offset="0.7" stop-color="#b62a25"/><stop offset="0.84" stop-color="#a9201a"/><stop offset="0.97" stop-color="#a51c16"/></linearGradient><linearGradient id="linear-gradient-2" x1="1.85" y1="38.29" x2="80.24" y2="38.29" xlink:href="#linear-gradient"/><linearGradient id="linear-gradient-3" x1="1.85" y1="26.06" x2="80.24" y2="26.06" xlink:href="#linear-gradient"/><linearGradient id="linear-gradient-4" x1="1.85" y1="47.64" x2="80.24" y2="47.64" xlink:href="#linear-gradient"/><linearGradient id="linear-gradient-5" x1="-1.01" y1="35.84" x2="93.61" y2="35.84" xlink:href="#linear-gradient"/><linearGradient id="linear-gradient-6" x1="-1.01" y1="35.85" x2="93.61" y2="35.85" xlink:href="#linear-gradient"/><linearGradient id="linear-gradient-7" x1="-1.01" y1="16.4" x2="93.61" y2="16.4" xlink:href="#linear-gradient"/><linearGradient id="linear-gradient-8" x1="-1.01" y1="55.35" x2="93.61" y2="55.35" xlink:href="#linear-gradient"/><linearGradient id="linear-gradient-10" x1="-1.01" y1="36.2" x2="93.61" y2="36.2" xlink:href="#linear-gradient"/><linearGradient id="linear-gradient-11" x1="-1.01" y1="35.8" x2="93.61" y2="35.8" xlink:href="#linear-gradient"/></defs><path class="cls-1" d="M14.92,55.58c-4.8,0-7.32-9.93-7.32-19.73s2.52-19.74,7.32-19.74a1.26,1.26,0,0,1,0,2.51c-2,0-4.83,6.7-4.83,17.23S13,53.08,14.92,53.08a1.25,1.25,0,1,1,0,2.5Z"/><path class="cls-2" d="M22.46,45.32a1.21,1.21,0,0,1-.87-.35L8.14,33.42a1.24,1.24,0,1,1,1.73-1.79L23.32,43.17a1.27,1.27,0,0,1,0,1.77A1.2,1.2,0,0,1,22.46,45.32Z"/><path class="cls-3" d="M19,30.87a1.21,1.21,0,0,1-.88-.37l-7.91-7.12a1.25,1.25,0,1,1,1.76-1.77l7.91,7.12a1.27,1.27,0,0,1,0,1.77A1.21,1.21,0,0,1,19,30.87Z"/><path class="cls-4" d="M19.79,54.12a1.28,1.28,0,0,1-.88-.36L8.49,43.28a1.26,1.26,0,0,1,0-1.76,1.24,1.24,0,0,1,1.76,0L20.68,52a1.27,1.27,0,0,1,0,1.77A1.28,1.28,0,0,1,19.79,54.12Z"/><path class="cls-5" d="M13.51,65.15C5.93,65.15,0,52.29,0,35.85S5.93,6.53,13.51,6.53,27,19.42,27,35.85,21.08,65.15,13.51,65.15Zm0-55.59C8.43,9.56,3,20.12,3,35.85S8.43,62.14,13.51,62.14,24,51.58,24,35.85,18.58,9.56,13.51,9.56Z"/><path class="cls-6" d="M47.19,71.69a94.19,94.19,0,0,1-35.56-6.57,1.51,1.51,0,1,1,1.15-2.79,91.18,91.18,0,0,0,34.41,6.34,91.34,91.34,0,0,0,33.93-6.15,2,2,0,0,1,.54-.29c9.12-3.35,11-16.2,11-26.38,0-14.67-5.82-23.31-11.26-26.5A90.5,90.5,0,0,0,47.19,3,91,91,0,0,0,12.78,9.37a1.51,1.51,0,1,1-1.15-2.79A94.07,94.07,0,0,1,47.19,0,94,94,0,0,1,82.75,6.58a1.37,1.37,0,0,1,.54.37c6.08,3.8,12.41,13.28,12.41,28.9,0,15.95-4.24,25.72-12.58,29.05a1.72,1.72,0,0,1-.37.22A94.19,94.19,0,0,1,47.19,71.69Z"/><path class="cls-7" d="M83.43,19.39a1.81,1.81,0,0,1-.51-.08c-9.71-2.58-13.92-2.9-25.61-2.9s-18.17.35-27.73,2.9a1.51,1.51,0,1,1-.77-2.92c9.82-2.62,16.42-3,28.5-3s18,.6,26.52,3a1.52,1.52,0,0,1,1.07,1.82,1.58,1.58,0,0,1-.38.68A1.42,1.42,0,0,1,83.43,19.39Z"/><path class="cls-8" d="M58,58.3c-12.32,0-18.15-.38-28.16-3a1.5,1.5,0,1,1,.75-2.91C40.33,54.93,45.9,55.28,58,55.28c11.88,0,14.31.69,24-1.78a2,2,0,0,1,.47-.17,1.5,1.5,0,0,1,1.8,1.14,1.4,1.4,0,0,1,0,.81,1.45,1.45,0,0,1-1,1C73.13,58.92,70.28,58.3,58,58.3Z"/><path class="cls-5" d="M88.22,37.35H31.49a1.51,1.51,0,0,1,0-3H88.22a1.51,1.51,0,0,1,0,3Z"/><path class="cls-9" d="M31.22,70.69a1.5,1.5,0,0,1-1.4-1,1.51,1.51,0,0,1,.85-2c7.92-3.18,12.1-14.1,12.1-31.58S36.39,8.32,30.42,4.49A1.51,1.51,0,0,1,32,1.94C38.67,6.2,45.77,17.43,45.77,36.2c0,19.08-4.71,30.66-14,34.39A1.62,1.62,0,0,1,31.22,70.69Z"/><path class="cls-10" d="M63,70.3a1.51,1.51,0,0,1-.55-2.92c7.92-3.17,12.11-14.09,12.11-31.58S68.13,7.92,62.15,4.1a1.51,1.51,0,0,1,1.61-2.56C70.41,5.79,77.51,17,77.51,35.8c0,19.09-4.71,30.66-14,34.39A1.55,1.55,0,0,1,63,70.3Z"/></svg>